<?xml version="1.0" encoding="UTF-8" standalone="no"?>
<!-- Created with Inkscape (http://www.inkscape.org/) -->
<svg
   xmlns:svg="http://www.w3.org/2000/svg"
   xmlns="http://www.w3.org/2000/svg"
   version="1.0"
   width="956.69287"
   height="730.62988"
   id="svg2">
  <defs
     id="defs4" />
  <g
     transform="translate(-1606.0401,85.324627)"
     id="layer1">
    <g
       transform="translate(35.433036,35.396083)"
       id="g4669">
      <path
         d="M 2016.9205,4.5000144 L 2016.9205,4.5000144 C 1995.6465,28.210236 1968.0316,50.533328 1946.8389,66.291754 C 2034.9686,42.613792 2182.2791,55.726996 2212.2308,58.775453 L 2212.2308,25.032743 L 2078.1322,25.032743 C 2078.1322,25.032743 2081.3413,-59.549842 2082.3259,-85.324627 C 2067.4546,-62.614428 2038.179,-19.12956 2016.9205,4.5000144"
         id="path4633"
         style="fill:#004677;fill-opacity:1;fill-rule:nonzero;stroke:none" />
      <path
         d="M 1732.8817,96.921489 C 1710.7044,106.7443 1633.4123,137.58371 1606.0401,147.01941 C 1607.2014,151.74533 1609.0724,159.69712 1610.475,165.51984 C 1617.7655,162.56816 1631.5246,157.92289 1646.3959,157.92289 C 1671.2842,157.92289 1678.0095,171.29416 1680.4134,191.48817 C 1682.6225,213.08544 1684.9284,290.23238 1684.9284,341.7013 L 1685.0264,359.95978 C 1685.0574,370.2826 1685.1387,380.73445 1685.1387,391.08953 C 1685.1387,446.18757 1683.8006,499.01136 1676.6714,515.25367 C 1669.4932,531.27016 1654.9122,541.15749 1609.6686,541.89944 L 1609.6686,559.64178 C 1616.2339,559.52888 1632.5246,559.20629 1632.5246,559.20629 L 1718.333,557.69012 L 1804.5608,559.14177 C 1804.5608,559.14177 1824.5135,559.52888 1831.4646,559.67404 L 1831.4646,542.07686 C 1801.3994,541.86718 1774.2698,539.25422 1765.5121,518.33438 C 1760.1249,500.76946 1759.512,452.47803 1759.512,397.58968 C 1759.512,388.79915 1759.5598,342.74971 1759.5598,342.74971 L 1759.5598,196.68184 L 1761.8334,195.27858 C 1814.7223,162.42299 1869.1107,144.35806 1914.9336,144.35806 C 1944.4827,144.35806 1967.9361,152.14856 1984.4849,167.5844 C 2012.4365,197.64961 2012.1952,262.00592 2011.9681,324.21703 C 2012.4688,324.3138 2012.3243,347.94338 2012.3243,347.94338 L 2012.5333,436.76799 C 2014.8727,527.8346 2050.8077,570.22267 2125.714,570.22267 C 2214.0386,570.22267 2328.3947,487.22077 2329.5573,486.39817 L 2337.2504,480.81739 L 2337.2504,574.51309 C 2346.1539,569.98073 2365.0098,560.30309 2365.0098,560.30309 C 2387.138,550.51254 2464.4791,519.67312 2491.8669,510.20516 C 2490.6901,505.47925 2488.8191,497.55971 2487.4474,491.70474 C 2480.1247,494.65642 2466.3502,499.33395 2451.5111,499.33395 C 2426.6073,499.33395 2419.8975,485.89815 2417.4936,465.76866 C 2415.0587,442.26812 2414.0754,350.21762 2414.0754,306.11984 C 2414.0754,306.11984 2418.1232,97.808606 2418.4136,82.792133 C 2409.3656,87.389013 2390.5097,97.034395 2390.5097,97.034395 C 2368.5737,106.77655 2291.2971,137.58371 2263.9429,147.01941 C 2265.1043,151.74533 2266.9907,159.69712 2268.3946,165.51984 C 2275.6684,162.56816 2289.4274,157.92289 2304.3297,157.92289 C 2329.2348,157.92289 2335.8788,171.29416 2338.2827,191.48817 C 2339.0079,196.73023 2338.9124,216.08551 2338.6221,249.84435 L 2338.315,306.11984 L 2338.315,460.54273 L 2336.0568,461.94599 C 2282.3937,495.3016 2230.2157,512.89877 2185.2469,512.89877 C 2155.6656,512.89877 2132.278,505.05988 2115.6492,489.64018 C 2087.6963,459.5911 2087.9544,398.42841 2088.2615,327.63646 L 2088.3415,294.87764 C 2087.9866,294.87764 2087.5995,220.45658 2087.5995,220.45658 C 2085.0833,129.35772 2049.1638,86.985778 1974.4679,86.985778 C 1890.4815,86.985778 1769.4477,170.0522 1768.2374,170.89093 L 1760.6565,176.13298 L 1760.6565,82.711486 C 1751.7686,87.243848 1732.8817,96.921489 1732.8817,96.921489"
         id="path4635"
         style="fill:#004677;fill-opacity:1;fill-rule:nonzero;stroke:none" />
    </g>
  </g>
</svg>
